<svg xmlns="http://www.w3.org/2000/svg" viewBox="0 0 186.2 200" class="conocimiento" data-etiqueta="Angular"><g transform="translate(-31.9 -30)"><polygon points="125 30 31.9 63.2 46.1 186.3 125 230 125 230 125 230 203.9 186.3 218.1 63.2 125 30 " fill="#dd0031"/><polygon points="125 52.1 125 153.4 125 153.4 125 230 125 230 203.9 186.3 218.1 63.2 125 30 125 52.2 " fill="#c3002f"/><path d="M125 52.1 66.8 182.6v0h21.7v0l11.7-29.2h49.4l11.7 29.2v0H183v0L125 52.1v0 0zm17 83.3h-34l17-40.9z" fill="#fff"/></g></svg>