<svg xmlns="http://www.w3.org/2000/svg" viewBox="0 0 336 356" class="conocimiento" data-etiqueta="AngularJS"><path d="M167.4 0L0 58.9l26.45 219.33 141.13 77.57 141.86-78.62 26.44-219.32L167.4 0z" fill="#b3b3b3"/><path d="M319.2 70.55L167 18.65v318.62l127.53-70.58L319.2 70.55z" fill="#af2b2d"/><path d="M18.8 71.48l22.67 196.15L167 337.28V18.65L18.8 71.48z" fill="#df2e31"/><path d="M202.3 177.13l-35-73.08-30.8 73.08h65.8zm13.34 30.73h-92.76l-20.75 51.9-38.6.7L167 30.22l107.1 230.26h-35.78l-22.72-52.62z" fill="#f2f2f2"/><path d="M167 30.22l.28 73.83 34.96 73.14H167.1L167 207.8l48.6.05 22.72 52.63 36.94.7L167 30.22z" fill="#b3b3b3"/></svg>