<svg xmlns="http://www.w3.org/2000/svg" id="bitbucket-logo" class="conocimiento" data-etiqueta="Bitbucket" viewBox="0 0 122.3 141.2"><path class="<?php echo $h ?>" d="m61.2 0v0 0c-33.7 0-61.2 9.1-61.2 20.3 0 3 7.3 45.4 10.3 62.3 1.3 7.6 20.8 18.6 50.9 18.6l0-0.1v0.1c30.1 0 49.6-11.1 50.9-18.6 2.9-16.8 10.3-59.3 10.3-62.3 0-11.2-27.5-20.3-61.2-20.3zm0 87.5c-10.7 0-19.4-8.7-19.4-19.4 0-10.7 8.7-19.4 19.4-19.4s19.4 8.7 19.4 19.4c0 10.7-8.7 19.4-19.4 19.4zm0-61c-21.6 0-39.2-3.8-39.2-8.4s17.6-8.3 39.2-8.3c21.6 0 39.2 3.8 39.2 8.4 0 4.6-17.6 8.3-39.2 8.3z"/><path class="<?php echo $h ?>" d="m105.1 99.4c-0.9 0-1.7 0.7-1.7 0.7s-15.1 11.9-42.3 11.9c-27.2 0-42.3-11.9-42.3-11.9s-0.7-0.7-1.7-0.7c-1.1 0-2.2 0.7-2.2 2.4 0 0.2 0 0.3 0 0.5 2.3 12.5 4 21.4 4.3 22.7 2 9.2 20 16.2 41.7 16.2h0c21.7 0 39.7-6.9 41.7-16.2 0.3-1.4 2-10.2 4.3-22.7 0-0.2 0-0.3 0-0.5 0-1.6-1.1-2.4-2.2-2.4z"/><circle class="<?php echo $h ?>" cx="61.2" cy="68.1" r="9.7"/></svg>