<svg xmlns="http://www.w3.org/2000/svg" class="conocimiento" data-etiqueta="Bower" viewBox="0 0 512 512"><path d="m434.6 63.5c-67.8 0-118.4 71.7-95 123.2 96 0 56.9-88.6 95-123.2z" fill="#00acee"/><path d="m456.5 257c0-22.8-108.6-34.1-169.1-37.7-60.5-3.5-281.6 38.4-255.4 93.8 26.2 55.4 92.6 114.4 167.3 114.4 38.7 0 83.6-27.3 86.1-77.4 44.8-15 171.2-15.7 171.2-93.1z" fill="#ffcc2f"/><path d="m401 272.1c7 7.1-15.2 26.3-34.6 17.3 8.7 19.7-29.7 36.1-48.3 22 2 15.9-36.1 25-48.3 7.3 3.1 8.4 5.8 14.9 8.2 20.2 0-0.1 0-0.1 0-0.1 6.3 8.3 14.9 14.9 52.4 14.9 57.7 0 151-43.8 151-76 0-26.6-10-29.1-27.2-27.2-17.2 1.9-107.2 11.3-126.3 7.5 10.4 2.2 62.7 12.2 73.2 14.1z" fill="#2baf2b"/><path d="m198.5 48.8c-110.4 0-221.2 109.7-168.4 261.1 35.8 21.5 83.6 13 94.3 1.5 16.2 5.2 30.6 7.3 43.5 7.3 67 0 124.3-71.2 124.3-160.3 0-91.3-60.3-109.7-93.7-109.7z" fill="#ef5734"/><path d="m153.3 146.5c0 24.6 20 44.6 44.6 44.6 24.6 0 44.6-20 44.6-44.6 0-24.6-20-44.6-44.6-44.6-24.6 0-44.6 20-44.6 44.6z" fill="#FFCC2F"/><path d="m171.2 146.5c0 14.7 12 26.7 26.7 26.7s26.7-12 26.7-26.7c0-14.7-12-26.7-26.7-26.7-14.7 0-26.7 12-26.7 26.7z" fill="#543729"/><path d="m289.4 123.7c-20.3 11.8-19.6 50-10.6 68.7 17.4-6.5 41.8-19.3 45.5-21.6 3.8-2.3-2.1-11 12.6-11 20.3 0 38.7 6.3 44 8.6-3.3-6.9-45.1-44.7-91.4-44.7z" fill="#cecece"/><path d="m502.2 250.8c-26.3-25.3-158-41.1-199.6-45.7 2-4.8 3.7-9.7 5.1-14.7 5.7-2.5 11.8-4.8 18.1-6.7 0.8 2.3 4.4 11 6.5 15.1 83.6 2.3 87.8-62.1 91.2-79.7 3.3-17.2 3.2-33.9 31.8-64.4-42.7-12.4-104.1 19.3-124.7 66.5-7.7-2.9-15.5-5-23.1-6.4-5.5-22.1-34.1-83.8-109.1-83.8-48.6 0-97.6 20.1-134.4 55-19.9 18.9-35.4 41.2-46.3 66.5-11.8 27.3-17.7 57.4-17.7 89.4 0 111.5 76.1 209.2 119.1 209.2 18.8 0 34.9-14.1 38.7-26.7 3.2 8.6 12.9 35.5 16.1 42.4 4.7 10.1 26.6 18.9 36.2 8.4 12.3 6.8 34.9 11 47.3-7.3 23.7 5 44.7-9.1 45.2-26 11.6-0.6 17.4-17 14.8-30-1.9-9.6-21.9-44-29.7-55.9 15.5 12.6 54.6 16.1 59.4 0 24.9 19.6 63.8 9.3 66.9-6.6 30.3 7.9 65.1-9.4 59.3-30.4 48.7-3.4 42.4-55.2 28.8-68.3zm-126.8-85.8c-12.8-5-29.1-8.2-40.5-8.2-16.2 0-26 9.2-41.2 9.2-3.2 0-10.8 0-16.9-2.2 4 4.2 9 6.5 18.7 6.5 5.8 0 17.3-3 26.6-5.8 0.1 2 0.3 3.9 0.6 5.8-17.4 4.2-35.7 15.2-40.9 18.1-11.8-26-1.6-50.5 7.7-61.8 41.9 0.1 75.7 28.8 86 38.4zm18.1-2l-6.4-6c-6.6-6.2-13.4-11.7-20.5-16.7 10.5-20.8 23.7-43.5 40.3-57.6-18.3 7.4-36.4 29.4-47.1 53-5.4-3.5-11-6.6-16.6-9.3 14.9-31.8 49.6-58.4 87.8-60.5-25.6 23.2-16 69.5-37.5 96.9zm-52.6 21.7c-2.8-6.1-5.7-16.3-5.3-22.2 4.8-0.1 13.9 1.7 15.3 2-0.6 2.8-0.9 8.9-0.9 9.7 0.9-1.6 3.4-6.9 4.4-9 9.1 1.7 21.1 4.7 28.2 7.9-8.3 5.3-22.3 11.2-41.7 11.6zm-57-71.8c-33.4 33.8-20.2 76.6-8 96-17.3 28.8-51.3 48.4-90.8 57.4 44.3 0 70.4-11.4 85.6-22.6 9.7-7.1 14.9-14.2 17.6-18.1 65.7 4.3 169.8 25.4 179.9 32.3 4.1 2.8 8.3 8.8 8.9 14.7-49.4-6.9-138.4-14.2-161.7-15.4 16.5 2.3 137.2 25.2 158.2 30.6-6.4 10.4-20.9 17.7-42.7 12.6 11.8 16.1-11.1 35.4-43.1 24.8 7 15.8-21.4 30-53.7 13.6 0.4 15.8-40.1 17.6-56.1 0.2 0.3 2.1 2.2 6.1 3 7.8-5.2 46.2-43 74.8-81.7 74.8-94.8 0-177.4-77-177.4-179.4 0-108.3 80-189.1 176.6-189.1 55.3 0 80.3 43.6 85.5 60z" fill="#543729"/></svg>