<svg class="conocimiento" data-etiqueta="Git" version="1.1" viewBox="0 0 91.8377 91.949997" xmlns="http://www.w3.org/2000/svg"><g transform="translate(-260.48 -331.18)"><path d="m350.5 373-40.1-40.1c-2.3-2.3-6.1-2.3-8.4 0l-8.3 8.3 10.6 10.6c2.5-0.8 5.3-0.3 7.2 1.7 2 2 2.5 4.8 1.7 7.3l10.2 10.2c2.5-0.8 5.3-0.3 7.3 1.7 2.8 2.7 2.8 7.2 0 10s-7.2 2.8-10 0c-2.1-2.1-2.6-5.1-1.5-7.7l-9.5-9.5v25c0.7 0.3 1.3 0.8 1.9 1.3 2.8 2.7 2.8 7.2 0 10-2.8 2.7-7.2 2.7-10 0-2.8-2.8-2.8-7.2 0-10 0.7-0.7 1.5-1.2 2.3-1.5v-25.3c-0.8-0.3-1.6-0.9-2.3-1.5-2.1-2.1-2.6-5.1-1.5-7.7l-10.4-10.4-27.5 27.5c-2.3 2.3-2.3 6.1 0 8.4l40.1 40.1c2.3 2.3 6.1 2.3 8.4 0l39.9-39.9c2.3-2.4 2.3-6.2-0.1-8.5z" style="fill:#e84427"/></g></svg>