<svg id="jquery-logo" class="conocimiento" data-etiqueta="jQuery" version="1.1" viewBox="0 0 278.26205 70.599998" xmlns="http://www.w3.org/2000/svg"><g id="jquery-subtitulo" class="<?php echo $h ?>" transform="translate(-110.81 -113.2)"><path d="m218 176.1c0 0.6-0.1 1.2-0.1 1.9l2.5-4.5-0.3-1.5 2.5-0.4 0.9 6.3 1.1-3.9c0.1-0.4 0.1-0.7 0.1-1s0-0.6-0.1-1l2.6-0.5c0.1 0.5 0.2 1 0.1 1.5 0 0.6-0.2 1.3-0.6 2.4l-2.1 5.7h-3.1l-0.7-4.2-2.4 4.2h-3c0.1-3.9 0-6.4-0.3-9l2.6-0.4c0.3 1.4 0.4 2.8 0.3 4.4z"/><path d="m234.3 174c-1.2 0.6-1.7 0.9-2.8 1.6l-1.2 5.5h-2.7l1.9-9.1 2.4-0.4-0.1 1.3c0.9-0.5 1.7-0.9 2.5-1.3z"/><path d="m235.9 171.9 2.8-0.4-2 9.5h-2.7zm0.8-4.1 2.8-0.4-0.6 2.9-2.8 0.4z"/><path d="m243.6 173.9-1 4.6v0.2c0 0.1 0.1 0.2 0.3 0.2 0.5 0 1-0.2 1.5-0.4l0.5 1.9c-0.8 0.4-1.9 0.8-3 0.8-1.4 0-2.1-0.7-2-1.8 0-0.1 0-0.3 0.1-0.4l1.1-5.2h-1.4l0.5-2.2h1.4l0.5-2.2 2.8-0.4-0.5 2.6h2.2l-0.6 2.2h-2.4z"/><path d="m246.8 175c0.5-2.1 1.5-3.5 4.4-3.5 1.8 0 3.1 0.8 3 2.3-0.1 1.8-1 2.7-3.3 3.3-1.1 0.3-1.2 0.3-2 0.6l-0.1 0.6c-0.1 0.3 0 0.7 0.5 0.7 1 0 2.4-0.5 3.7-1l0.4 1.9c-1.2 0.7-3 1.3-4.6 1.3-1.9 0-2.7-0.8-2.7-2.4 0-0.3 0.1-0.7 0.2-1.1zm4.9-0.9c0-0.3-0.3-0.5-0.8-0.5-1 0-1.3 0.6-1.4 1.3l-0.1 0.7c0.5-0.1 0.7-0.2 1.2-0.3 0.8-0.3 1.1-0.6 1.1-1.2z"/><path d="m261.2 167.9 2.8-0.4-2.8 13.5h-2.7z"/><path d="m264.3 175c0.5-2.1 1.5-3.5 4.4-3.5 1.8 0 3.1 0.8 3 2.3-0.1 1.8-1 2.7-3.3 3.3-1.1 0.3-1.2 0.3-2 0.6l-0.1 0.6c-0.1 0.3 0 0.7 0.5 0.7 1 0 2.4-0.5 3.7-1l0.4 1.9c-1.2 0.7-3 1.3-4.6 1.3-1.9 0-2.7-0.8-2.7-2.4 0-0.3 0.1-0.7 0.2-1.1zm4.9-0.9c0-0.3-0.3-0.5-0.8-0.5-1 0-1.3 0.6-1.4 1.3l-0.1 0.7c0.5-0.1 0.7-0.2 1.2-0.3 0.8-0.3 1.1-0.6 1.1-1.2z"/><path d="m272 180.6 0.6-2c0.7 0.2 1.5 0.5 2.5 0.5 0.9 0 1-0.3 1.1-0.7s-0.2-0.6-1.2-1.2c-1.9-1-2-1.7-1.7-3.1 0.4-2 1-2.5 3.6-2.5 0.9 0 2 0.2 2.8 0.4l-0.5 2c-0.7-0.2-1.7-0.3-2.3-0.3-0.8 0-0.9 0.1-1 0.6-0.1 0.4 0 0.5 0.9 1 2.1 1.1 2.4 1.5 2.1 3-0.5 2.1-1.1 2.9-3.9 2.9-1 0-2.2-0.2-3-0.6z"/><path d="m279.7 180.6 0.6-2c0.7 0.2 1.5 0.5 2.5 0.5 0.9 0 1-0.3 1.1-0.7s-0.2-0.6-1.2-1.2c-1.9-1-2-1.7-1.7-3.1 0.4-2 1-2.5 3.6-2.5 0.9 0 2 0.2 2.8 0.4l-0.5 2c-0.7-0.2-1.7-0.3-2.3-0.3-0.8 0-0.9 0.1-1 0.6-0.1 0.4 0 0.5 0.9 1 2.1 1.1 2.4 1.5 2.1 3-0.5 2.1-1.1 2.9-3.9 2.9-1 0-2.2-0.2-3-0.6z"/><path d="m287.1 183.1 1.5-2.1h-1l0.7-3.2h2.7l-0.7 3.4-2.2 2.6z"/><path d="m301.8 181v-0.8c-0.7 0.6-1.7 1-3 1-2 0-2.5-1.2-2-3.3l0.5-2.5c0.5-2.2 1.1-3.9 5-3.9 0.3 0 0.9 0 1.1 0.1l0.8-3.7 2.8-0.4-2.8 13.5zm-2.4-2.8c-0.1 0.5 0 0.7 0.5 0.7 1 0 1.7-0.5 2.2-1l0.9-4.1c-0.3-0.1-0.7-0.1-1-0.1-1.4 0-1.7 0.7-1.9 1.6z"/><path d="m306.6 178.1c0-0.2 0-0.4 0.1-0.7l0.5-2.2c0.5-2.4 1.7-3.8 5-3.8 2.5 0 3.6 1.4 3.5 3.1 0 0.2 0 0.4-0.1 0.7l-0.5 2.2c-0.5 2.2-1.6 3.8-5 3.8-2.4 0-3.5-1.4-3.5-3.1zm6.3-3.3c0-0.7-0.4-1.1-1.3-1.1-1 0-1.6 0.5-1.8 1.4l-0.5 2.3c0 0.1 0 0.3-0.1 0.4 0 0.7 0.4 1.1 1.3 1.1 1 0 1.6-0.5 1.8-1.4l0.5-2.3c0.1-0.1 0.1-0.3 0.1-0.4z"/><path d="m332.1 174.7v-0.3c0-0.2-0.1-0.3-0.4-0.3-0.5 0-1.7 0.5-2.5 0.9l-1.3 6h-2.7l1.3-6.3v-0.3c0-0.2-0.1-0.3-0.4-0.3-0.5 0-1.7 0.5-2.4 0.9l-1.3 6h-2.4l1.9-9.1 2.4-0.4-0.1 1c1.5-0.7 2.6-1.1 3.7-1.1 0.9 0 1.4 0.4 1.6 1.1 1.4-0.8 2.7-1.1 3.8-1.1 1.2 0 1.7 0.7 1.6 1.9 0 0.3 0 0.7-0.1 1.1l-1.4 6.5h-2.7z"/><path d="m335.9 178.1c0-0.2 0-0.4 0.1-0.7l0.5-2.2c0.5-2.4 1.7-3.8 5-3.8 2.5 0 3.6 1.4 3.5 3.1 0 0.2 0 0.4-0.1 0.7l-0.5 2.2c-0.5 2.2-1.6 3.8-5 3.8-2.4 0-3.6-1.4-3.5-3.1zm6.3-3.3c0-0.7-0.4-1.1-1.3-1.1-1 0-1.6 0.5-1.8 1.4l-0.5 2.3c0 0.1 0 0.3-0.1 0.4 0 0.7 0.4 1.1 1.3 1.1 1 0 1.6-0.5 1.8-1.4l0.5-2.3c0.1-0.1 0.1-0.3 0.1-0.4z"/><path d="m352.1 174c-1.2 0.6-1.7 0.9-2.8 1.6l-1.2 5.5h-2.7l1.9-9.1 2.4-0.4-0.1 1.3c0.9-0.5 1.7-0.9 2.5-1.3z"/><path d="m352.7 175c0.5-2.1 1.5-3.5 4.4-3.5 1.8 0 3.1 0.8 3 2.3-0.1 1.8-1 2.7-3.3 3.3-1.1 0.3-1.2 0.3-2 0.6l-0.1 0.6c-0.1 0.3 0 0.7 0.5 0.7 1 0 2.4-0.5 3.7-1l0.4 1.9c-1.2 0.7-3 1.3-4.6 1.3-1.9 0-2.7-0.8-2.7-2.4 0-0.3 0.1-0.7 0.2-1.1zm4.9-0.9c0-0.3-0.3-0.5-0.8-0.5-1 0-1.3 0.6-1.4 1.3l-0.1 0.7c0.5-0.1 0.7-0.2 1.2-0.3 0.7-0.3 1.1-0.6 1.1-1.2z"/><path d="m361.2 177.8h2.7l-0.7 3.2h-2.7z"/></g><path class="jquery-logo <?php echo $h ?>" d="m3.2876 13.4c-4.6 6.5-4 15.1-0.5 22 0.1 0.2 0.2 0.3 0.3 0.5 0 0.1 0.1 0.2 0.2 0.3 0 0.1 0.1 0.1 0.1 0.2 0.1 0.1 0.1 0.2 0.2 0.3l0.3 0.6c0.1 0.1 0.1 0.2 0.2 0.3 0.1 0.2 0.3 0.4 0.4 0.6 0.1 0.1 0.1 0.2 0.2 0.3 0.2 0.3 0.4 0.5 0.6 0.8l0.1 0.1c0.2 0.2 0.3 0.5 0.5 0.7 0.1 0.1 0.1 0.2 0.2 0.2 0.2 0.2 0.3 0.4 0.5 0.6l0.2 0.2c0.2 0.3 0.4 0.5 0.7 0.7 0.2 0.2 0.4 0.5 0.7 0.7l0.2 0.2 0.5 0.5 0.2 0.2c0.2 0.2 0.5 0.4 0.7 0.7l0.1 0.1c0.2 0.2 0.4 0.4 0.7 0.6 0.1 0.1 0.2 0.1 0.3 0.2 0.2 0.1 0.4 0.3 0.6 0.4 0.1 0.1 0.2 0.1 0.3 0.2 0.2 0.2 0.4 0.3 0.6 0.4l0.2 0.2h0.1c0.2 0.1 0.4 0.3 0.6 0.4 0.1 0.1 0.2 0.1 0.3 0.2l0.9 0.6c0.1 0 0.2 0.1 0.3 0.1 0.2 0.1 0.5 0.3 0.7 0.4 0.1 0.1 0.3 0.1 0.4 0.2 0.2 0.1 0.3 0.2 0.5 0.3 0 0 0.1 0 0.1 0.1 0.1 0 0.1 0.1 0.2 0.1 0.3 0.1 0.5 0.3 0.8 0.4 0.1 0 0.1 0 0.2 0.1 0.3 0.1 0.6 0.3 0.9 0.4 0.1 0 0.1 0.1 0.2 0.1 0.3 0.1 0.6 0.2 0.9 0.3h0.1c0.3 0.1 0.7 0.2 1 0.3 0.1 0 0.2 0.1 0.2 0.1 0.3 0.1 0.7 0.2 1 0.3 22 4 28.4-13.2 28.4-13.2-5.4 7-14.9 8.8-24 6.8-0.3-0.1-0.7-0.2-1-0.3-0.1 0-0.2 0-0.2-0.1-0.3-0.1-0.7-0.2-1-0.3 0 0-0.1 0-0.1-0.1-0.3-0.1-0.6-0.2-0.9-0.3-0.1 0-0.2-0.1-0.2-0.1-0.3-0.1-0.6-0.3-0.9-0.4-0.1 0-0.1-0.1-0.2-0.1-0.3-0.1-0.5-0.2-0.8-0.4-0.1 0-0.1-0.1-0.2-0.1l-0.6-0.3c-0.1-0.1-0.3-0.1-0.4-0.2-0.2-0.1-0.5-0.3-0.7-0.4-0.1-0.1-0.2-0.1-0.2-0.1l-0.9-0.6c-0.1-0.1-0.2-0.1-0.3-0.2-0.2-0.1-0.5-0.3-0.7-0.4l-0.2-0.2c-0.2-0.1-0.4-0.3-0.6-0.5-0.1-0.1-0.2-0.1-0.3-0.2-0.2-0.1-0.4-0.3-0.6-0.4-0.1-0.1-0.2-0.1-0.3-0.2-0.2-0.2-0.5-0.4-0.7-0.6 0 0-0.1 0-0.1-0.1-0.3-0.2-0.5-0.5-0.7-0.7l-0.2-0.2c-0.2-0.2-0.4-0.3-0.5-0.5l-0.2-0.2c-0.2-0.2-0.4-0.5-0.7-0.7-0.2-0.3-0.4-0.5-0.7-0.8l-0.2-0.2c-0.2-0.2-0.3-0.4-0.5-0.6l-0.2-0.2c-0.2-0.2-0.4-0.5-0.6-0.7-5-6.8-6.8-16.3-2.8-24"/><path class="jquery-logo <?php echo $h ?>" d="m17.388 7.9c-3.3 4.7-3.1 11.1-0.5 16.1 0.4 0.8 0.9 1.7 1.5 2.4 0.5 0.7 1 1.5 1.7 2.1 0.2 0.3 0.5 0.5 0.7 0.8l0.2 0.2c0.2 0.2 0.5 0.5 0.8 0.7 0.3 0.3 0.6 0.5 0.9 0.7l0.2 0.2c0.3 0.2 0.6 0.5 0.9 0.7 0.1 0.1 0.3 0.2 0.4 0.3 0.1 0 0.1 0.1 0.2 0.1 0.2 0.1 0.5 0.3 0.7 0.4 0 0 0.1 0 0.1 0.1l0.6 0.3c0.1 0 0.1 0.1 0.2 0.1 0.1 0.1 0.3 0.1 0.4 0.2h0.1c0.3 0.1 0.6 0.3 0.9 0.4 0.1 0 0.1 0.1 0.2 0.1 0.2 0.1 0.5 0.2 0.7 0.3 0.1 0 0.2 0.1 0.3 0.1 0.2 0.1 0.4 0.2 0.7 0.2 0.1 0 0.2 0.1 0.3 0.1 0.3 0.1 0.6 0.2 1 0.3 17 2.8 20.9-10.3 20.9-10.3-3.5 5.1-10.4 7.5-17.7 5.6-0.3-0.1-0.6-0.2-1-0.3-0.1 0-0.2-0.1-0.3-0.1-0.2-0.1-0.5-0.1-0.7-0.2-0.1 0-0.2-0.1-0.3-0.1-0.2-0.1-0.5-0.2-0.7-0.3-0.1 0-0.1-0.1-0.2-0.1-0.3-0.1-0.6-0.3-0.9-0.4-0.1-0.1-0.3-0.2-0.4-0.2s-0.2-0.1-0.3-0.1l-0.6-0.3s-0.1 0-0.1-0.1c-0.2-0.1-0.5-0.3-0.7-0.4-0.1 0-0.1-0.1-0.2-0.1-0.1-0.1-0.3-0.2-0.4-0.3-0.3-0.2-0.6-0.4-0.9-0.7l-0.2-0.2c-3.2-2.5-5.7-6-6.9-9.9-1.3-4.1-1-8.6 1.2-12.3"/><path class="jquery-logo <?php echo $h ?>" d="m29.288 3.7c-1.9 2.9-2.1 6.4-0.8 9.6 1.4 3.4 4.3 6 7.7 7.2 0.1 0.1 0.3 0.1 0.4 0.1s0.1 0 0.2 0.1c0.2 0.1 0.4 0.1 0.6 0.2 9.4 1.8 11.9-4.8 12.6-5.8-2.2 3.2-6 4-10.6 2.9-0.4-0.1-0.8-0.2-1.1-0.3-0.4-0.2-0.9-0.3-1.3-0.5-0.8-0.4-1.6-0.9-2.3-1.4-4.1-3.1-6.7-9.1-4-13.9"/><path class="jquery-titulo <?php echo $h ?>" d="m246.99 17.1 0.4 1.6c0.1 0.4-0.2 0.8-0.6 0.8"/><path class="jquery-titulo <?php echo $h ?>" d="m217.39 14.5c-0.1 0.4-0.2 1-0.3 1.3l-3.3 15.2 3.4-16z"/><polygon class="jquery-titulo <?php echo $h ?>" transform="translate(-110.81 -113.2)" points="230.8 137.8 229 144.2"/><path class="jquery-titulo <?php echo $h ?>" d="m247.39 18.7-0.9-4c-0.7-2.9-2.8-4.2-7.5-4.2h-19.8c-0.5 0-0.9 0.2-1 0.7l-7.5 35.6c-0.1 0.5-0.1 0.8-0.1 1 0.1 0.2 0.9 0.2 1.4 0.2h6.9c0.5 0 1.3 0 1.5-0.1 0.3-0.1 0.4-0.8 0.5-1.2l2.4-12.5 3-13.9c0.1-0.4 0.5-0.8 1-0.8h19.6c0.3 0 0.6-0.4 0.5-0.8"/><path class="jquery-titulo <?php echo $h ?>" d="m275.29 4.2h-8.7c-0.5 0-1 0.5-1.3 0.9l-15.3 22.5c-0.3 0.4-0.6 0.4-0.7-0.1l-1.1-4.9c-0.1-0.4-0.6-0.8-1-0.8h-9.8c-0.5 0-0.7 0.4-0.6 0.8l4.4 15.4c0.1 0.4 0.1 1.2 0 1.6l-2.1 7.8c-0.1 0.4 0.2 0.6 0.6 0.6h9.7c0.5 0 0.9-0.1 1-0.6l2.1-7.9c0.1-0.4 0.4-1 0.7-1.4l24.9-33c0.3-0.4 0.2-0.8-0.2-0.8z"/><path class="jquery-titulo <?php echo $h ?>" d="m173.09 10.5h-8.9c-0.5 0-0.9 0.2-1 0.6l-2.9 13.7-2.9 13.1c-0.1 0.4-0.5 0.4-1 0.4h-5.8c-5.8 0-5.1-3.6-3.9-9.1 0-0.1 3.7-18.1 3.7-18.1 0.1-0.4-0.2-0.6-0.7-0.6h-8.4c-0.5 0-0.9 0.2-1 0.6l-3.4 18.1c-1.7 9.8-1.7 18.4 9.6 18.7h17.9c0.5 0 0.9-0.2 1-0.6l3.9-18.2 3.8-18.2c0.1 0 0.2-0.4 0-0.4z"/><path class="jquery-titulo <?php echo $h ?>" d="m84.988 10.5h-9.5c-0.5 0-0.9 0.1-1 0.6l-1.7 7.4c-0.1 0.4 0.2 0.8 0.7 0.8h9.1c0.5 0 0.9-0.4 1-0.9l1.6-7.5c-0.1 0 0.1-0.4-0.2-0.4z"/><path class="jquery-titulo <?php echo $h ?>" d="m72.788 21.8c-0.5 0-0.9 0.4-1 0.8l-1.3 5.7-2.9 13.1s-1.5 6.9-1.7 7.4c0 0-1.3 5-4.3 4.8-1.4-0.1-3-0.4-3-0.4-0.9-0.3-0.9 0.6-1 1.1l-1.9 8.1c-0.1 0.4 0.2 0.8 0.6 0.9 0 0 4.1 0.6 7 0.6h0.5c7.1 0 10.9-4.2 13.3-15.6l2.8-13.2 2.6-12.3c0.1-0.4-0.2-0.9-0.6-0.9"/><path class="jquery-titulo <?php echo $h ?>" d="m195.49 10.4c-16 0-19.8 9.9-21.9 19.6-2.1 10-1.9 17.9 14.6 17.9h0.6 14.5c0.4 0 0.9-0.4 1-0.9l1.6-6.3c0.1-0.4-0.2-0.6-0.7-0.6h-14.9c-5.4 0-7.3-1.7-7.1-5.4 0-0.4 0.5-1.5 0.9-1.5h22.9c1 0 1-0.6 1-0.6 2.5-10.4 2.7-22.2-12.5-22.2m4.3 15.7c0 0.5-1.6 0.4-1.6 0.4l-12.4-0.1c-0.4 0-0.6-0.6-0.6-1 0 0 0-0.5 0.1-0.6 1-3.3 3.8-5.2 8.4-5.2 5.1 0 6.2 2.5 6.2 5.4"/><path class="jquery-titulo <?php echo $h ?>" d="m126.49 37.7s4.5-10.9 5.5-17.1c1.4-8.4-2.8-20.6-19.1-20.6-16.2 0-23.2 11.6-25.8 24.3-2.7 12.7 0.8 23.8 16.9 23.7h24.5c0.5 0 0.9-0.4 1-0.8l2.1-7.9c0.1-0.4-0.2-0.8-0.6-0.8h-4c-0.4 0-0.6-0.3-0.6-0.6 0.1-0.1 0.1-0.2 0.1-0.2m-8.4-6.7-1.8 6.3c-0.1 0.4-0.6 0.7-1.1 0.7h-9.5c-7.2 0-9-5.6-7.2-13.9 1.8-8.5 5.2-13.7 12.3-14.3 9.7-0.7 11.7 6.1 9.3 14z"/></svg>