<svg class="conocimiento" data-etiqueta="JSON" version="1.1" viewBox="0 0 160 159.99998" xmlns="http://www.w3.org/2000/svg" xmlns:xlink="http://www.w3.org/1999/xlink"><defs><linearGradient id="jsona"><stop offset="0"/><stop style="stop-color:#fff" offset="1"/></linearGradient><linearGradient id="jsonc" x1="-553.27" x2="-666.12" y1="525.91" y2="413.05" gradientTransform="matrix(.99884 0 0 .9987 689.01 -388.84)" gradientUnits="userSpaceOnUse" xlink:href="#jsona"/><linearGradient id="jsonb" x1="-666.12" x2="-553.27" y1="413.04" y2="525.91" gradientTransform="matrix(.99884 0 0 .9987 689.01 -388.84)" gradientUnits="userSpaceOnUse" xlink:href="#jsona"/></defs><g style="fill-rule:evenood"><path d="m79.865 119.1c35.398 48.255 70.04-13.469 69.989-50.587-.0602-43.886-44.541-68.414-70.018-68.414-40.892 0-79.836 33.796-79.836 80.036 0 51.396 44.64 79.865 79.836 79.865-7.9645-1.1468-34.506-6.834-34.863-67.967-.23987-41.347 13.488-57.866 34.805-50.599.47743.17707 23.514 9.2645 23.514 38.951 0 29.56-23.427 38.715-23.427 38.715z" style="fill:url(#jsonb)"/><path d="m79.823 41.401c-23.39-8.0619-52.043 11.216-52.043 49.829 0 63.048 46.721 68.77 52.384 68.77 40.892 0 79.836-33.796 79.836-80.036 0-51.396-44.64-79.865-79.836-79.865 9.7481-1.35 52.541 10.55 52.541 69.037 0 38.141-31.953 58.905-52.735 50.033-.47743-.17707-23.514-9.2645-23.514-38.951 0-29.56 23.367-38.818 23.367-38.818z" style="fill:url(#jsonc)"/></g></svg>