<svg xmlns="http://www.w3.org/2000/svg" class="conocimiento" data-etiqueta="Materialize" viewBox="-177 331 256 131"><g stroke-width="0.09"><path d="m-113.8 335.2c0.9-1.6 2.1-3.1 3.9-3.8 0.7-0.1 1.4-0.1 2.1-0.1h35c-1 0.9-2 1.8-2.7 2.9-1.8 2.9-3 6.2-4.1 9.5-3.1 9.9-5.3 20-7.5 30.2-1 4.6-1.9 9.2-2.7 13.8-2.7 15.1-5.4 30.1-8.8 45-1.6 6.9-3.3 13.8-5.8 20.4-1.2 2.7-2.3 5.7-4.6 7.7-0.5 0.5-1 1-1.8 1h-30.9c-2.1-0.1-4.2 0.1-6.3-0.1 1.4-1.1 2.6-2.4 3.4-3.9 2.3-4.4 3.8-9.2 5.2-14 2.2-7.7 3.9-15.4 5.5-23.2 1-5.1 2.2-10.2 3-15.3 0.8-5.7 2.1-11.4 3.1-17 1.6-8.4 3.3-16.7 5.2-25 1.5-6.5 3.1-12.9 5.1-19.3 1-3 2.1-6 3.7-8.8z" style="fill:#eb7077;stroke:#eb7077"/><path d="m-72.9 331.3h2.7c2 1 3.6 2.7 4.6 4.8 1.2 2.3 2.3 4.8 3.2 7.3 3.1 9.5 5.2 19.4 7.3 29.2 1.8 8.8 3.5 17.6 5.1 26.4 0.1 0.5 0 1.1 0.6 1.2-2.2 11.6-4.4 23.3-7.2 34.8-1.5 6.2-3.1 12.4-5.4 18.4-1.2 3-2.5 6.3-5.1 8.4-1.7 0.4-2.9-0.9-3.9-2-1.8-2.3-2.8-4.9-3.9-7.6-3.5-9.5-5.6-19.4-7.8-29.3-1.6-7.7-3.1-15.4-4.6-23.2-0.7-3.9-1.6-7.8-2.1-11.7-0.1-0.1-0.3-0.2-0.4-0.2l2.7-13.8c2.1-10.2 4.3-20.3 7.5-30.2 1.1-3.3 2.3-6.5 4.1-9.5 0.6-1.2 1.6-2.1 2.6-3z" style="fill:#f6a2ad;stroke:#f6a2ad"/><path d="m-34.2 336.7c1.1-2.1 2.5-4.5 4.9-5.3 12.3-0.1 24.5 0 36.8 0-1.1 1.1-2.3 2.3-3.1 3.7-2.4 4.3-3.8 9-5.2 13.6-3.6 12.8-6.2 26-8.6 39.1-2.3 12.9-4.7 25.9-7.4 38.8-1.4 6.5-2.9 12.9-4.8 19.3-1.2 4-2.5 7.9-4.4 11.6-1 1.7-2.1 3.5-3.9 4.4-11.7 0.1-23.4 0-35.1 0-0.6 0-1.3 0-2-0.1 2.6-2.1 3.9-5.4 5.1-8.4 2.3-6 3.9-12.2 5.4-18.4 2.8-11.5 5-23.2 7.2-34.8 2.7-15 5.5-30 9.1-44.7 1.5-6.4 3.1-12.9 6-18.8z" style="fill:#eb7077;stroke:#eb7077"/><path d="m7.4 331.3h3c1.6 0.8 2.7 2.3 3.8 3.7 1.7 2.7 2.7 5.7 3.8 8.6 2.6 7.9 4.5 16 6.2 24.1 2.3 10.9 4.4 21.9 6.4 32.8 0.5 2.6 1 5.3 1.3 7.9l0.5 0.5c-1.1 1.5-1.5 3.4-2.2 5.2-1.9 6.3-3.2 12.8-4.3 19.2-0.8 5.1-2 10.1-3.6 15-1.2 3.6-2.6 7.2-4.9 10.2-1.1 1.5-2.6 2.6-4.3 3.3-2.6 0.3-4.1-2.2-5.3-4-2.6-4.5-4-9.5-5.4-14.4-4.9-18.1-8.1-36.6-11.5-54.9 0-0.3-0.2-0.5-0.4-0.6 2.4-13.1 5-26.2 8.6-39.1 1.4-4.7 2.8-9.4 5.2-13.6 0.8-1.6 2-2.7 3.1-3.9z" style="fill:#f6a2ad;stroke:#f6a2ad"/><path d="m-177 401.6c0.8-0.1 1.6-0.2 2.4-0.2h33.7c1.4 0.2 2.9 0.1 4.3 0.7 2 0.8 3.7 2.2 5 3.9 0.2-0.1 0.4-0.3 0.6-0.5-0.7 5.1-1.9 10.2-3 15.3-1.6 7.8-3.4 15.5-5.5 23.2-1.4 4.8-2.8 9.5-5.2 14-0.8 1.5-2 2.8-3.4 3.9-0.5 0.1-0.9-0.3-1.4-0.6-1.5-0.9-2.3-2.5-3.2-4-4.2-9.6-4.7-20.3-7.3-30.4-1.3-5-3-10-5.4-14.7-1.5-2.8-3.3-5.4-5.7-7.6-1.6-1.4-3.7-2.5-5.9-3z" style="fill:#f6a2ad;stroke:#f6a2ad"/><path d="m35.1 404.8c1.9-2.2 4.8-3.6 7.8-3.5h25.3c3.5 0.1 7.1-0.1 10.6 0.1-1 0.7-2.3 1-3.4 1.6-3.9 1.8-7.2 4.7-9.3 8.4-3.4 5.9-4.5 12.6-5.5 19.2-1 6.5-1 13.2-3.1 19.5-1.4 4.4-3.6 8.9-7.3 11.8-11.6 0.1-23.2 0-34.8 0.1-0.8 0-1.5 0-2.3-0.1 1.7-0.7 3.2-1.9 4.3-3.3 2.3-3 3.8-6.6 4.9-10.2 1.6-4.9 2.7-9.9 3.6-15 1.1-6.5 2.3-12.9 4.3-19.2 0.6-1.8 1-3.6 2.2-5.2 0.9-1.5 1.5-3.1 2.7-4.2z" style="fill:#eb7077;stroke:#eb7077"/></g></svg>