<svg xmlns="http://www.w3.org/2000/svg" id="mongodb-logo" class="conocimiento" data-etiqueta="MongoDB" viewBox="0 0 1941.8 553.2"><linearGradient id="mdbc" x1="1161.5" x2="991" y1="-878.1" y2="-879.3" gradientTransform="matrix(-.9771 -.323 .2901 -.8773 1427.2 -120.13)" gradientUnits="userSpaceOnUse"><stop stop-color="#999875" offset=".2308"/><stop stop-color="#9B9977" offset=".5632"/><stop stop-color="#A09F7E" offset=".6829"/><stop stop-color="#A9A889" offset=".7683"/><stop stop-color="#B7B69A" offset=".8373"/><stop stop-color="#C9C7B0" offset=".8964"/><stop stop-color="#DEDDCB" offset=".9482"/><stop stop-color="#F8F6EB" offset=".9944"/><stop stop-color="#FBF9EF" offset="1"/></linearGradient><path d="m133.2 539.4l-14.5-4.8s1.8-73.2-24.6-78.3c-17.4-20.2 2.7-861.9 65.9-2.9 0 0-21.7 10.9-25.8 29.3-3.9 18.5-1 56.7-1 56.7z" fill="url(#mdbc)"/><linearGradient id="mdbb" x1="1187.8" x2="942.4" y1="-579.7" y2="-1004.6" gradientTransform="matrix(-.9771 -.323 .2901 -.8773 1427.2 -120.13)" gradientUnits="userSpaceOnUse"><stop stop-color="#48A547" offset="0"/><stop stop-color="#3F9143" offset="1"/></linearGradient><path d="m141 468.7s125.7-82.8 96.3-254.8c-28.4-124.9-95.3-166-102.5-181.7-7.9-11.1-15.9-30.8-15.9-30.8l5.3 348.1c0 0.1-11 106.4 16.8 119.2z" fill="url(#mdbb)"/><linearGradient id="mdba" x1="1210.3" x2="1036.4" y1="-885.2" y2="-768.3" gradientTransform="matrix(-.9771 -.323 .2901 -.8773 1427.2 -120.13)" gradientUnits="userSpaceOnUse"><stop stop-color="#41A247" offset="0"/><stop stop-color="#4BA74B" offset=".3523"/><stop stop-color="#67B554" offset=".9557"/><stop stop-color="#69B655" offset="1"/></linearGradient><path d="m111.4 473.3s-117.9-80.4-111.1-222.4c6.8-141.9 90.1-211.7 106.3-224.4 10.5-11.2 10.9-15.5 11.7-26.5 7.4 15.8 6.1 235.9 6.9 261.6 3 100.1-5.5 192.8-13.8 211.7z" fill="url(#mdba)"/><path d="m1457.1 209.4c6.7 0 32.4 1.2 44.3 1.2 22.2 0 37.7-1.2 79.4-1.2 35 0 64.4 9.4 85.4 27.5 25.4 22 38.9 52.6 38.9 89.8 0 53-24.2 83.6-48.5 100.8-24.2 18-55.6 28.2-100.5 28.2-23.8 0-64.7-0.8-98.9-1.2h-0.5c-1.6-3.1 2.9-15.4 5.7-15.7 9.2-1 11.7-1.4 16-3.2 7.2-3 8.9-6.6 9.7-19.6 1.2-24.3 0.8-53.3 0.8-86.3 0-23.5 0.4-69.4-0.4-83.9-1.2-12.2-6.3-15.3-16.7-17.7-5.2-1.2-12.3-2.4-22.2-3.5-0.6-2.3 5.5-12.9 7.5-15.2zm79.2 218.1c8.3 6.7 25 9.4 39.7 9.4 19.1 0 37.7-3.5 56-20 18.7-16.9 31.4-42.8 31.4-83.9 0-39.6-15.1-71.8-46.1-90.6-17.5-11-40.1-15.3-65.9-15.3-7.5 0-15.1 0.4-19.5 2.4-1.2 0.8-3.6 3.9-3.6 5.5-0.8 7.1-0.8 60.8-0.8 92.6 0 32.6 0 78.1 0.8 83.6 0.5 4.5 2.9 12.8 8 16.3z" fill="#C0BFBE"/><path d="m1738.6 209.4c3.6 0 14.1 1.2 41.2 1.2 25.4 0 46.1-0.8 70.7-0.8 30.6 0 72.7 11 72.7 56.5 0 22.4-15.9 40.4-36.5 49-1.2 0.4-1.2 1.2 0 1.6 29.4 7.4 55.2 25.5 55.2 60 0 33.7-21 54.9-51.6 68.3-18.7 8.2-41.7 11-65.1 11-17.9 0-65.8-2-92.4-1.6-2.8-1.2 2.5-13.7 4.9-15.7 6.4-0.4 11.3-0.8 18-2.8 9.5-2.4 10.7-5.4 11.9-19.5 0.8-12.2 0.8-55.7 0.8-86.7 0-42.4 0.4-71 0-85.1-0.4-11-4.4-14.5-11.9-16.5-6-1.2-15.9-2.4-23.8-3.5-2.2-2.1 3.9-13.8 5.9-15.4zm161.9 176.1c0-34.5-25.4-54.1-71.9-54.1-2 0-16.7-0.4-20.3 0.4-1.2 0.4-2.4 1.2-2.4 2 0 24.7-0.4 64.3 0.8 80 0.8 6.7 5.6 16.1 11.5 18.8 6.4 3.5 20.7 4.3 30.6 4.3 27.5 0 51.7-15.3 51.7-51.4zm-90.2-156.9c-1.6 0.4-3.6 4.3-3.6 6.3-0.4 14.1-0.8 51-0.8 76.5 0 0.8 1.2 2 2 2 5.2 0.4 17.9 0.8 28.6 0.8 15.1 0 23.8-2 28.6-4.3 12.7-6.3 18.7-20 18.7-34.9 0-34.1-23.8-47.1-59.2-47.1-2.4-0.1-9.1-0.1-14.3 0.7z" fill="#C0BFBE"/><path class="<?php echo $h ?>" d="m317.7 455.6c-0.7-1.1-1.4-4.2-1.2-7.9 0.1-2.9 0.7-4.7 1.2-5.3 7.5-1.2 11-2 15.2-3.1 7-1.7 9.7-5.5 10.1-14.5 1.2-21.2 1.2-60.8 0.8-88.7v-0.8c0-3 0.1-7.1-3.7-10-5.5-3.6-12.4-6.6-21.1-9.2-3.3-1-5.2-2.7-5.1-4.8 0.1-2 2.2-4.5 6.5-5.3 11.5-1.2 41.7-8.4 53.5-13.8 0.7 0.9 1.8 2.7 1.6 5.6-0.1 1.2-0.2 2.5-0.3 3.9-0.3 3.9-0.7 8.4-0.7 12.9 0 1.3 1.4 2.6 2.9 2.6 0.8 0 1.5-0.3 2.1-0.9 22.6-17.6 42.7-23.9 53.1-23.9 17.1 0 30.3 8.1 40.6 24.9 0.6 0.9 1.4 1.4 2.3 1.4s1.7-0.4 2.2-1.2c20.7-15.7 41.3-25.1 55-25.1 32.5 0 51.9 24.3 51.9 65 0 11.7-0.1 26.5-0.2 40.4-0.1 12.1-0.2 23.5-0.2 31.4 0 1.9 2.6 7.2 6.4 8.3 4.8 2.3 11.6 3.5 20.3 5l0.3 0.1c0.7 2.3-0.7 11.4-2 13.3-2.2 0-5.1-0.2-8.8-0.4-6.8-0.3-16-0.8-26.8-0.8-21.6 0-32.9 0.4-43.7 1.1-0.8-2.7-1.1-11.4-0.1-13.2 6.3-1.2 9.4-2 13.2-3.1 6.9-2.3 8.9-5.4 9.3-14.5 0.2-6.5 1.4-63.6-0.8-77.1-2-14-12.6-30.5-35.8-30.5-8.6 0-22.5 3.6-35.7 13.6-0.8 0.8-1.3 2.3-1.3 3.4v0.3c1.6 7.3 1.6 15.9 1.6 28.8 0 7.4 0 15.2-0.1 22.9-0.1 15.7-0.2 30.6 0.1 41.8 0 7.7 4.6 9.5 8.4 11 2 0.4 3.6 0.8 5.2 1.2 3.1 0.8 6.4 1.5 11.1 2.3 0.7 1.5 0.7 6-0.2 9.9-0.5 2.1-1.1 3.1-1.4 3.4-12-0.4-24.3-0.8-42.1-0.8-5.4 0-14.2 0.2-22 0.4-6.3 0.2-12.3 0.3-15.6 0.3-0.5-0.8-1.2-3.3-1.2-6.8 0-3.3 0.6-5.7 1.2-6.4 1.7-0.3 3.3-0.6 4.8-0.9 4.2-0.7 7.8-1.4 11.2-2.2 5.9-1.8 8.1-5.1 8.5-12.5 1.1-17.5 2-67.7-0.4-80.3-4.2-20.2-15.7-30.5-34.2-30.5-10.8 0-24.5 5.2-35.7 13.6-1.9 1.4-3.3 4.9-3.3 8.1v20.8c-0.1 25.3-0.2 56.7 0.4 70.3 0.4 4.2 1.8 9.2 9.7 11 1.7 0.5 4.7 1 8.2 1.6 2 0.3 4.2 0.7 6.4 1.1 0.8 2.2 0.3 10.6-1.1 13.3-3.5 0-7.7-0.2-12.6-0.4-7.4-0.3-16.7-0.7-27.2-0.7-12.4 0-21.1 0.4-28 0.7-4.7-0.4-8.7-0.2-12.7-0.1z"/><path class="<?php echo $h ?>" d="m718.1 459.1c-59.7 0-80.9-43.7-80.9-84.6 0-28.6 11.7-50.9 34.8-66.4 16.4-10.1 36-15.9 53.7-15.9 45.5 0 77.4 32.7 77.4 79.5 0 31.8-12.7 57-36.8 72.7-11.6 7.1-31.6 14.7-48.2 14.7zm-6.4-150.3c-7.2 0-14 1.9-19 5.3-13.8 8.4-20.8 25.1-20.8 49.7 0 46 23.1 78.2 56.1 78.2 9.7 0 17.7-2.8 24.3-8.6 10.1-8.3 15.5-25.2 15.5-48.8 0-45.3-22.6-75.8-56.1-75.8z"/><path class="<?php echo $h ?>" d="m1336 459.1c-59.7 0-80.9-43.7-80.9-84.6 0-28.6 11.7-50.9 34.8-66.4 16.4-10.1 36-15.9 53.7-15.9 45.5 0 77.4 32.7 77.4 79.5 0 31.9-12.7 57-36.8 72.7-11.6 7.1-31.6 14.7-48.2 14.7zm-6.4-150.3c-7.2 0-14 1.9-19 5.3-13.8 8.4-20.8 25.1-20.8 49.7 0 46 23.1 78.2 56.1 78.2 9.7 0 17.7-2.8 24.3-8.6 10.1-8.3 15.5-25.2 15.5-48.8 0-45.3-22.5-75.8-56.1-75.8z"/><path class="<?php echo $h ?>" d="m1130 553.2c-21.4 0-36.9-4.5-50-14.7-12.8-9.9-18.6-24.6-18.6-34.7 0-2.9 0.7-10.4 7-17.6 3.7-4.2 12.4-12.2 32.4-25.9 0.6-0.2 1-0.8 1-1.6s-0.5-1.5-1.3-1.6c-16.5-6.3-21.4-16.6-22.9-22.2 0-0.2-0.1-0.5-0.2-0.9-0.5-2.2-0.9-4.3 2.1-6.4 2.3-1.6 6-3.8 9.9-6.1 5.8-3.4 12.3-7.3 16-10.4 0.6-0.6 0.8-1.4 0.7-2.2s-0.6-1.5-1.3-1.9c-24.4-8.2-36.6-26.3-36.6-53.8 0-17.8 8.2-33.8 22.5-44.1 9.8-7.7 34.4-17 50.3-17h0.9c16.4 0.4 25.6 3.8 38.4 8.5 6.9 2.6 13.5 3.6 22.7 3.6 13.6 0 19.5-4.3 24.6-9.2 0.3 0.6 1 2.6 1.3 7 0.3 4.6-0.9 11.3-4.4 16.1-2.8 3.8-9.2 6.6-15.3 6.6-0.6 0-1.2 0-1.8-0.1-6.2-0.6-9.2-1.5-9.2-1.5l-1.5 0.5c-0.5 0.7-0.2 1.5 0.2 2.5 0.1 0.2 0.2 0.5 0.2 0.6 0.8 3.2 2.2 12.4 2.2 15 0 28.9-11.4 41.5-23.7 50.8-11.8 8.9-25.5 14.2-41 15.8-0.3 0-1.8 0.1-4.7 0.4-1.9 0.2-4.3 0.4-4.6 0.4h-0.3c-2.7 0.8-9.7 4.1-9.7 10.3 0 5.1 3.2 11.5 18.3 12.6 3.1 0.2 6.3 0.5 9.8 0.7 19.9 1.4 44.8 3.1 56.6 7.1 16.1 5.9 26.1 20.3 26.1 37.6 0 25.9-18.4 50.3-49.3 65.1-15.2 7.3-30.4 10.7-46.8 10.7zm-2.4-91c-6.9 0-11.9 2-14.9 3.7-14.6 9.3-21.3 18.6-21.3 29.4 0 10.1 3.9 18.1 12.4 25.3 10.2 8.7 24 12.9 42.1 12.9 35.7 0 51.7-19.2 51.7-38.1 0-13.2-6.6-22.1-20.3-27.1-10.6-4-28.2-6.1-49.7-6.1zm2.4-154.9c-18.4 0-30.3 14.5-30.3 37 0 22.7 10.2 49.1 39 49.1 4.9 0 13.9-2.2 18.4-7.1 6.7-6.1 11.1-18.8 11.1-32.2-0.1-29.3-14.4-46.8-38.2-46.8z"/><path class="<?php echo $h ?>" d="m1033 441.1c-8.7-1.2-15.1-2.4-22.6-5.9-1.2-0.8-2.8-4.3-2.8-5.5-0.8-12.2-0.8-47.5-0.8-70.6 0-18.8-3.2-35.3-11.1-47.1-9.5-13.3-23-21.2-40.5-21.2-15.5 0-36.1 10.6-53.2 25.1-0.4 0.4-3 2.9-3-1 0.1-3.9 0.7-11.7 1-16.7 0.4-4.9-2.6-7.3-2.6-7.3-11.1 5.5-42.4 12.9-54 14.1-8.5 1.6-10.6 9.7-1.6 12.5h0.1c9.4 2.8 15.8 5.9 20.5 9 3.6 2.7 3.2 6.7 3.2 9.8 0.4 26.3 0.4 66.7-0.8 88.7-0.4 8.6-2.8 11.8-9.1 13.3l0.6-0.2c-4.8 1.2-8.7 2-14.7 2.7-2 2-2 13.3 0 15.7 4 0 24.2-1.2 40.9-1.2 23 0 35 1.2 40.9 1.2 2.4-2.8 3.2-13.3 1.6-15.7-6.8-0.4-11.5-1.2-16.3-2.4-6.4-1.6-7.9-4.7-8.3-11.8-0.8-18.4-0.8-57.7-0.8-84.3 0-7.5 2-11 4.4-12.9 7.9-7.1 21-11.8 32.6-11.8 11.1 0 18.7 3.5 24.2 8.2 7.5 6.3 10.3 15.3 11.1 22 1.6 14.9 1.2 44.7 1.2 70.6 0 14.1-1.2 17.7-6.4 19.2-2.4 1.2-8.7 2.4-16.3 3.1-2.4 2.3-1.6 13.3 0 15.7 10.3 0 22.2-1.2 39.7-1.2 21.8 0 35.7 1.2 41.3 1.2 2.4-2.3 3.2-12.5 1.6-15.3z"/></svg>