<svg xmlns="http://www.w3.org/2000/svg" id="nodejs-logo" class="conocimiento" data-etiqueta="Npm/Node.js" viewBox="0 0 442.4 270.9"><style>.a{fill:#699F63;}.b{clip-path:url(#npma);}.c{fill:none;}</style><g class="a"><path d="m218.6 270.9c-1.5 0-2.9-0.4-4.2-1.1l-13.3-7.9c-2-1.1-1-1.5-0.4-1.7 2.7-0.9 3.2-1.1 6-2.7 0.3-0.2 0.7-0.1 1 0.1l10.2 6.1c0.4 0.2 0.9 0.2 1.2 0l39.9-23.1c0.4-0.2 0.6-0.6 0.6-1.1v-46.1c0-0.5-0.2-0.9-0.6-1.1l-39.9-23c-0.4-0.2-0.9-0.2-1.2 0l-39.9 23c-0.4 0.2-0.6 0.7-0.6 1.1v46.1c0 0.4 0.2 0.9 0.6 1.1l10.9 6.3c5.9 3 9.6-0.5 9.6-4v-45.5c0-0.6 0.5-1.2 1.2-1.2h5.1c0.6 0 1.2 0.5 1.2 1.2v45.5c0 7.9-4.3 12.5-11.8 12.5-2.3 0-4.1 0-9.2-2.5l-10.5-6c-2.6-1.5-4.2-4.3-4.2-7.3v-46.1c0-3 1.6-5.8 4.2-7.3l39.9-23.1c2.5-1.4 5.9-1.4 8.4 0l39.9 23.1c2.6 1.5 4.2 4.3 4.2 7.3v46.1c0 3-1.6 5.8-4.2 7.3l-39.9 23.1c-1.2 0.5-2.7 0.9-4.2 0.9z"/><path d="m231 239.2c-17.5 0-21.1-8-21.1-14.8 0-0.6 0.5-1.2 1.2-1.2h5.2c0.6 0 1.1 0.4 1.1 1 0.8 5.3 3.1 7.9 13.7 7.9 8.4 0 12-1.9 12-6.4 0-2.6-1-4.5-14.1-5.8-10.9-1.1-17.7-3.5-17.7-12.2 0-8.1 6.8-12.9 18.2-12.9 12.8 0 19.1 4.4 19.9 14 0 0.3-0.1 0.6-0.3 0.9-0.2 0.2-0.5 0.4-0.8 0.4h-5.3c-0.5 0-1-0.4-1.1-0.9-1.2-5.5-4.3-7.3-12.5-7.3-9.2 0-10.3 3.2-10.3 5.6 0 2.9 1.3 3.8 13.7 5.4 12.3 1.6 18.1 3.9 18.1 12.5 0 8.8-7.3 13.8-19.9 13.8z"/></g><path d="m288.6 190.8c0 4.2-3.5 7.7-7.7 7.7s-7.7-3.4-7.7-7.7c0-4.4 3.6-7.7 7.7-7.7s7.7 3.4 7.7 7.7zm-14.2 0c0 3.6 2.9 6.5 6.4 6.5 3.6 0 6.5-3 6.5-6.5 0-3.6-2.9-6.4-6.5-6.4-3.4 0-6.4 2.8-6.4 6.4zm3.6-4.3h3c1 0 3 0 3 2.3 0 1.6-1 1.9-1.6 2.1 1.2 0.1 1.3 0.9 1.4 2 0.1 0.7 0.2 1.9 0.4 2.3h-1.8c0-0.4-0.3-2.6-0.3-2.7-0.1-0.5-0.3-0.7-0.9-0.7h-1.5v3.5h-1.7v-8.8zm1.6 3.8h1.3c1.1 0 1.3-0.8 1.3-1.2 0-1.2-0.8-1.2-1.3-1.2h-1.4v2.4z" class="a"/><path class="nodejs-titulo <?php echo $h ?>" d="m94.9 90.6c0-1.8-1-3.5-2.6-4.4l-42.3-24.5c-0.7-0.4-1.5-0.6-2.3-0.7h-0.4c-0.8 0-1.6 0.3-2.3 0.7l-42.4 24.4c-1.6 0.9-2.6 2.6-2.6 4.5l0.1 65.6c0 0.9 0.5 1.8 1.3 2.2 0.8 0.5 1.8 0.5 2.5 0l25.2-14.4c1.6-0.9 2.6-2.6 2.6-4.4v-30.7c0-1.8 1-3.5 2.6-4.4l10.7-6.2c0.8-0.5 1.7-0.7 2.6-0.7s1.8 0.2 2.5 0.7l10.7 6.2c1.6 0.9 2.6 2.6 2.6 4.4v30.7c0 1.8 1 3.5 2.6 4.4l25 14.4c0.8 0.5 1.8 0.5 2.6 0 0.8-0.4 1.3-1.3 1.3-2.2v-65.6z"/><path class="nodejs-titulo <?php echo $h ?>" d="m298.7 0.3c-0.8-0.4-1.8-0.4-2.5 0-0.8 0.5-1.3 1.3-1.3 2.2v65c0 0.6-0.3 1.2-0.9 1.6-0.6 0.3-1.2 0.3-1.8 0l-10.6-6.1c-1.6-0.9-3.5-0.9-5.1 0l-42.4 24.5c-1.6 0.9-2.6 2.6-2.6 4.4v48.9c0 1.8 1 3.5 2.6 4.4l42.4 24.5c1.6 0.9 3.5 0.9 5.1 0l42.4-24.5c1.6-0.9 2.6-2.6 2.6-4.4v-121.9c0-1.9-1-3.6-2.6-4.5l-25.3-14.1zm-3.9 124.4c0 0.5-0.2 0.9-0.6 1.1l-14.5 8.4c-0.4 0.2-0.9 0.2-1.3 0l-14.5-8.4c-0.4-0.2-0.6-0.7-0.6-1.1v-16.8c0-0.5 0.2-0.9 0.6-1.1l14.5-8.4c0.4-0.2 0.9-0.2 1.3 0l14.5 8.4c0.4 0.2 0.6 0.7 0.6 1.1v16.8z"/><path class="nodejs-titulo <?php echo $h ?>" d="m439.8 107.5c1.6-0.9 2.5-2.6 2.5-4.4v-11.9c0-1.8-1-3.5-2.5-4.4l-42.1-24.4c-1.6-0.9-3.5-0.9-5.1 0l-42.4 24.5c-1.6 0.9-2.6 2.6-2.6 4.4v48.9c0 1.8 1 3.5 2.6 4.4l42.1 24c1.6 0.9 3.5 0.9 5 0l25.5-14.2c0.8-0.4 1.3-1.3 1.3-2.2s-0.5-1.8-1.3-2.2l-42.6-24.5c-0.8-0.5-1.3-1.3-1.3-2.2v-15.3c0-0.9 0.5-1.8 1.3-2.2l13.3-7.6c0.8-0.5 1.8-0.5 2.6 0l13.3 7.6c0.8 0.5 1.3 1.3 1.3 2.2v12c0 0.9 0.5 1.8 1.3 2.2 0.8 0.5 1.8 0.5 2.6 0l25.2-14.7z"/><path d="m394.5 105.2c0.3-0.2 0.7-0.2 1 0l8.1 4.7c0.3 0.2 0.5 0.5 0.5 0.9v9.4c0 0.4-0.2 0.7-0.5 0.9l-8.1 4.7c-0.3 0.2-0.7 0.2-1 0l-8.1-4.7c-0.3-0.2-0.5-0.5-0.5-0.9v-9.4c0-0.4 0.2-0.7 0.5-0.9l8.1-4.7z" class="a"/><defs><path id="npmb" d="m165.8 62.6c-1.6-0.9-3.5-0.9-5.1 0l-42.1 24.3c-1.6 0.9-2.5 2.6-2.5 4.4v48.7c0 1.8 1 3.5 2.5 4.4l42.1 24.3c1.6 0.9 3.5 0.9 5.1 0l42.1-24.3c1.6-0.9 2.5-2.6 2.5-4.4v-48.7c0-1.8-1-3.5-2.5-4.4l-42.1-24.3z"/></defs><linearGradient id="npmc" x1="180.4" x2="142.3" y1="80.7" y2="158.4" gradientUnits="userSpaceOnUse"><stop stop-color="#41873F" offset="0"/><stop stop-color="#418B3D" offset=".3288"/><stop stop-color="#419637" offset=".6352"/><stop stop-color="#3FA92D" offset=".9319"/><stop stop-color="#3FAE2A" offset="1"/></linearGradient><use xlink:href="#npmb" fill="url(#npmc)"/><clipPath id="npma"><use xlink:href="#npmb"/></clipPath><g class="b"><path d="m160.6 62.6l-42.2 24.3c-1.6 0.9-2.7 2.6-2.7 4.4v48.7c0 1.2 0.5 2.3 1.3 3.2l47.4-81.2c-1.2-0.3-2.6-0.1-3.8 0.6z" class="c"/><path d="m164.7 169.2c0.4-0.1 0.8-0.3 1.2-0.5l42.2-24.3c1.6-0.9 2.6-2.6 2.6-4.4v-48.7c0-1.3-0.6-2.6-1.5-3.5l-44.5 81.4z" class="c"/><linearGradient id="npmi" x1="156.9" x2="263.7" y1="121.3" y2="42.4" gradientUnits="userSpaceOnUse"><stop stop-color="#41873F" offset=".1376"/><stop stop-color="#54A044" offset=".4032"/><stop stop-color="#66B848" offset=".7136"/><stop stop-color="#6CC04A" offset=".9081"/></linearGradient><path d="m208 86.9l-42.3-24.3c-0.4-0.2-0.9-0.4-1.3-0.5l-47.4 81.1c0.4 0.5 0.9 0.9 1.4 1.2l42.3 24.3c1.2 0.7 2.6 0.9 3.9 0.5l44.5-81.4c-0.3-0.4-0.7-0.7-1.1-0.9z" fill="url(#npmi)"/></g><g class="b"><path d="m210.7 140v-48.7c0-1.8-1.1-3.5-2.7-4.4l-42.3-24.3c-0.5-0.3-1-0.5-1.6-0.6l46.3 79.1c0.2-0.3 0.3-0.7 0.3-1.1z" class="c"/><path d="m118.4 86.9c-1.6 0.9-2.7 2.6-2.7 4.4v48.7c0 1.8 1.2 3.5 2.7 4.4l42.3 24.3c1 0.6 2.1 0.8 3.3 0.6l-45.3-82.6-0.3 0.2z" class="c"/><linearGradient id="npmh" x1="114.6" x2="212" y1="53.8" y2="53.8" gradientUnits="userSpaceOnUse"><stop stop-color="#6CC04A" offset=".091916"/><stop stop-color="#66B848" offset=".2864"/><stop stop-color="#54A044" offset=".5968"/><stop stop-color="#41873F" offset=".8624"/></linearGradient><polygon points="159.3 53.7 158.7 54 159.5 54" fill="url(#npmh)"/><linearGradient id="npmg" x1="114.6" x2="212" y1="115.6" y2="115.6" gradientUnits="userSpaceOnUse"><stop stop-color="#6CC04A" offset=".091916"/><stop stop-color="#66B848" offset=".2864"/><stop stop-color="#54A044" offset=".5968"/><stop stop-color="#41873F" offset=".8624"/></linearGradient><path d="m208 144.4c1.2-0.7 2.1-1.9 2.5-3.2l-46.3-79.2c-1.2-0.2-2.5-0.1-3.6 0.6l-42 24.2 45.3 82.6c0.6-0.1 1.3-0.3 1.9-0.6l42.2-24.4z" fill="url(#npmg)"/><linearGradient id="npmf" x1="114.6" x2="212" y1="143.5" y2="143.5" gradientUnits="userSpaceOnUse"><stop stop-color="#6CC04A" offset=".091916"/><stop stop-color="#66B848" offset=".2864"/><stop stop-color="#54A044" offset=".5968"/><stop stop-color="#41873F" offset=".8624"/></linearGradient><polygon points="212 143.6 211.7 143.1 211.7 143.8" fill="url(#npmf)"/><linearGradient id="npme" x1="114.6" x2="212" y1="156" y2="156" gradientUnits="userSpaceOnUse"><stop stop-color="#6CC04A" offset=".091916"/><stop stop-color="#66B848" offset=".2864"/><stop stop-color="#54A044" offset=".5968"/><stop stop-color="#41873F" offset=".8624"/></linearGradient><path d="m208 144.4l-42.2 24.3c-0.6 0.3-1.2 0.5-1.9 0.6l0.8 1.5 46.8-27.1v-0.6l-1.2-2c-0.1 1.4-1 2.6-2.3 3.3z" fill="url(#npme)"/><linearGradient id="npmd" x1="226.2" x2="166.1" y1="78.4" y2="201" gradientUnits="userSpaceOnUse"><stop stop-color="#41873F" offset="0"/><stop stop-color="#418B3D" offset=".3288"/><stop stop-color="#419637" offset=".6352"/><stop stop-color="#3FA92D" offset=".9319"/><stop stop-color="#3FAE2A" offset="1"/></linearGradient><path d="m208 144.4l-42.2 24.3c-0.6 0.3-1.2 0.5-1.9 0.6l0.8 1.5 46.8-27.1v-0.6l-1.2-2c-0.1 1.4-1 2.6-2.3 3.3z" fill="url(#npmd)"/></g></svg>