<svg class="conocimiento" data-etiqueta="Php" enable-background="new 0 0 553 290.9" version="1.1" viewBox="0 0 553 290.9" xml:space="preserve" xmlns="http://www.w3.org/2000/svg"><radialGradient id="phpa" cx="139.48" cy="60.44" r="363.06" gradientTransform="translate(26.52 -9.3071)" gradientUnits="userSpaceOnUse"><stop stop-color="#fff" offset="0"/><stop stop-color="#4D6998" offset=".5"/><stop offset="1"/></radialGradient><ellipse cx="276.5" cy="145.4" rx="276.5" ry="145.4" fill="url(#phpa)"/><ellipse cx="276.5" cy="145.4" rx="265.7" ry="134.6" fill="#6682BA"/><g fill="#fff"><path d="m330.3 189l13.2-67.8c3-15.3 0.5-26.7-7.4-33.9-7.6-7-20.5-10.4-39.5-10.4h-22.8l6.5-33.6c0.2-1.3-0.1-2.6-0.9-3.6s-2-1.6-3.3-1.6h-31.5c-2.1 0-3.8 1.5-4.2 3.5l-14 72c-1.3-8.1-4.4-15.1-9.4-20.8-9.2-10.6-23.9-15.9-43.4-15.9h-61.1c-2.1 0-3.8 1.5-4.2 3.5l-28.4 145.7c-0.2 1.3 0.1 2.6 0.9 3.6s2 1.6 3.3 1.6h31.8c2.1 0 3.8-1.5 4.2-3.5l6.9-35.3h23.6c12.4 0 22.8-1.3 31-4 8.3-2.7 16-7.3 22.7-13.6 5.5-5 10-10.6 13.4-16.7l-5.7 29.1c-0.2 1.3 0.1 2.6 0.9 3.6s2 1.6 3.3 1.6h31.5c2.1 0 3.8-1.5 4.2-3.5l15.5-80h21.6c9.2 0 11.9 1.8 12.6 2.6 0.7 0.7 2.1 3.3 0.5 11.2l-12.5 64.5c-0.2 1.3 0.1 2.6 0.9 3.6s2 1.6 3.3 1.6h32c2.3 0 4.1-1.5 4.5-3.5zm-146-56.1c-2 10.2-5.7 17.4-11.1 21.6-5.5 4.2-14.2 6.3-26 6.3h-14.1l10.2-52.4h18.2c13.4 0 18.8 2.9 20.9 5.3 3 3.3 3.7 10 1.9 19.2z"/><path d="m465 92.8c-9.2-10.6-23.9-15.9-43.4-15.9h-61.1c-2.1 0-3.8 1.5-4.2 3.5l-28.3 145.8c-0.2 1.3 0.1 2.6 0.9 3.6s2 1.6 3.3 1.6h31.8c2.1 0 3.8-1.5 4.2-3.5l6.9-35.3h23.6c12.4 0 22.8-1.3 31-4 8.3-2.7 16-7.3 22.7-13.6 5.6-5.2 10.3-11 13.8-17.3s6-13.3 7.5-20.8c3.5-18.7 0.6-33.5-8.7-44.1zm-32.9 40.1c-2 10.2-5.7 17.4-11.1 21.6-5.5 4.2-14.2 6.3-26 6.3h-14l10.2-52.4h18.2c13.4 0 18.8 2.9 20.9 5.3 2.9 3.3 3.6 10 1.8 19.2z"/></g><path d="m161.5 104.1c12.1 0 20.1 2.2 24.1 6.7s5 12.1 2.9 22.9c-2.2 11.3-6.4 19.3-12.7 24.2-6.3 4.8-15.8 7.2-28.6 7.2h-19.3l11.9-61h21.7zm-77.4 122.8h31.7l7.5-38.8h27.2c12 0 21.9-1.3 29.6-3.8 7.8-2.5 14.8-6.7 21.1-12.7 5.3-4.9 9.6-10.3 12.9-16.2s5.6-12.4 7-19.5c3.4-17.3 0.8-30.7-7.6-40.4-8.4-9.6-21.8-14.5-40.2-14.5h-61.1l-28.1 145.9z"/><path d="m244.6 42.4h31.5l-7.5 38.8h28.1c17.7 0 29.8 3.1 36.5 9.2 6.7 6.2 8.7 16.1 6 29.9l-13.2 67.8h-32l12.5-64.5c1.4-7.3 0.9-12.3-1.6-15s-7.7-4-15.8-4h-25.1l-16.2 83.5h-31.5l28.3-145.7z"/><path d="m409.3 104.1c12.1 0 20.1 2.2 24.1 6.7s5 12.1 2.9 22.9c-2.2 11.3-6.4 19.3-12.7 24.2-6.3 4.8-15.8 7.2-28.6 7.2h-19.3l11.9-61h21.7zm-77.3 122.8h31.8l7.5-38.8h27.2c12 0 21.9-1.3 29.6-3.8 7.8-2.5 14.8-6.7 21.1-12.7 5.3-4.9 9.6-10.3 12.9-16.2s5.6-12.4 7-19.5c3.4-17.3 0.8-30.7-7.6-40.4-8.4-9.6-21.8-14.5-40.2-14.5h-61.1l-28.2 145.9z"/></svg>