<svg xmlns="http://www.w3.org/2000/svg" class="conocimiento" data-etiqueta="Python" viewBox="-62.4 334.6 111.2 112.3"><linearGradient id="pyb" x1="6.8" x2="115.8" y1="602.3" y2="696.1" gradientTransform="matrix(.5625 0 0 .568 -68.9 -4.3756)" gradientUnits="userSpaceOnUse"><stop stop-color="#5A9FD4" offset="0"/><stop stop-color="#306998" offset="1"/></linearGradient><path d="m-7.5 334.6c-4.6 0-9 0.4-12.8 1.1-11.3 2-13.4 6.2-13.4 13.9v10.2h26.8v3.4h-36.9c-7.8 0-14.6 4.7-16.8 13.6-2.4 10.3-2.5 16.6 0.1 27.3 1.9 7.9 6.5 13.6 14.3 13.6h9.2v-12.3c0-8.8 7.7-16.7 16.8-16.7h26.8c7.5 0 13.4-6.1 13.4-13.6v-25.5c0-7.3-6.1-12.7-13.4-13.9-4.7-0.8-9.5-1.1-14.1-1.1zm-14.5 8.2c2.8 0 5 2.3 5 5.1s-2.3 5.1-5 5.1c-2.8 0-5-2.3-5-5.1s2.2-5.1 5-5.1z" fill="url(#pyb)"/><linearGradient id="pya" x1="157.9" x2="119" y1="752.9" y2="697.8" gradientTransform="matrix(.5625 0 0 .568 -68.9 -4.3756)" gradientUnits="userSpaceOnUse"><stop stop-color="#FFD43B" offset="0"/><stop stop-color="#FFE873" offset="1"/></linearGradient><path d="m23.2 363.3v11.9c0 9.2-7.8 17-16.8 17h-26.7c-7.3 0-13.4 6.3-13.4 13.6v25.5c0 7.3 6.3 11.5 13.4 13.6 8.5 2.5 16.6 2.9 26.8 0 6.8-2 13.4-5.9 13.4-13.6v-10.2h-26.8v-3.4h40.2c7.8 0 10.7-5.4 13.4-13.6 2.8-8.4 2.7-16.5 0-27.3-1.9-7.8-5.6-13.6-13.4-13.6l-10.1 0.1zm-15 64.6c2.8 0 5 2.3 5 5.1s-2.3 5.1-5 5.1c-2.8 0-5-2.3-5-5.1-0.1-2.8 2.2-5.1 5-5.1z" fill="url(#pya)"/></svg>