<svg xmlns="http://www.w3.org/2000/svg" class="conocimiento" data-etiqueta="Ruby" viewBox="0 0 198.1 197.5"><linearGradient id="rbi" x1="174.1" x2="132.3" y1="215.5" y2="141.7" gradientUnits="userSpaceOnUse"><stop stop-color="#F29071" offset="0"/><stop stop-color="#D94736" offset=".41"/><stop stop-color="#A42423" offset=".99"/><stop stop-color="#A42423" offset="1"/></linearGradient><polygon points="40.4 197.6 186.9 187.6 198.1 40 153.5 130.4" fill="url(#rbi)"/><linearGradient id="rbh" x1="194.9" x2="141" y1="153.6" y2="117.4" gradientUnits="userSpaceOnUse"><stop stop-color="#993626" offset="0"/><stop stop-color="#A03529" offset=".99"/><stop stop-color="#A03529" offset="1"/></linearGradient><polygon points="140.2 145.9 187.1 187.5 174.5 100.7" fill="url(#rbh)"/><linearGradient id="rbg" x1="151.8" x2="97.9" y1="217.8" y2="181.6" gradientUnits="userSpaceOnUse"><stop stop-color="#993626" offset="0"/><stop stop-color="#A03529" offset=".99"/><stop stop-color="#A03529" offset="1"/></linearGradient><polygon points="40.9 197.4 187.3 187.5 95 180.3" fill="url(#rbg)"/><linearGradient id="rbf" x1="38.7" x2="47" y1="127.4" y2="181.7" gradientUnits="userSpaceOnUse"><stop stop-color="#fff" offset="0"/><stop stop-color="#E38C6E" offset=".23"/><stop stop-color="#D85839" offset=".46"/><stop stop-color="#A61916" offset=".99"/><stop stop-color="#A61916" offset="1"/></linearGradient><polygon points="13.3 132.8 41 197.4 64 121.9" fill="url(#rbf)"/><linearGradient id="rbe" x1="96.1" x2="99.2" y1="76.7" y2="132.1" gradientUnits="userSpaceOnUse"><stop stop-color="#fff" offset="0"/><stop stop-color="#E18B6A" offset=".23"/><stop stop-color="#C03928" offset=".56"/><stop stop-color="#AF2C21" offset=".99"/><stop stop-color="#AF2C21" offset="1"/></linearGradient><polygon points="58.3 120 140.2 146.2 119 63.1" fill="url(#rbe)"/><linearGradient id="rbd" x1="147.1" x2="156.3" y1="25.5" y2="65.2" gradientUnits="userSpaceOnUse"><stop stop-color="#fff" offset="0"/><stop stop-color="#E07E5E" offset=".18"/><stop stop-color="#C7422A" offset=".4"/><stop stop-color="#AF2C21" offset=".99"/><stop stop-color="#AF2C21" offset="1"/></linearGradient><polygon points="120 69.1 193.3 64.3 136 17.5" fill="url(#rbd)"/><linearGradient id="rbc" x1="119" x2="158.7" y1="11.5" y2="-8.3" gradientUnits="userSpaceOnUse"><stop stop-color="#fff" offset="0"/><stop stop-color="#C63D2B" offset=".54"/><stop stop-color="#BE2320" offset=".99"/><stop stop-color="#BE2320" offset="1"/></linearGradient><polygon points="111.5 0.5 166.5 0.8 132.8 19.4" fill="url(#rbc)"/><linearGradient id="rbb" x1="3.9" x2="7.2" y1="113.6" y2="146.3" gradientUnits="userSpaceOnUse"><stop stop-color="#fff" offset="0"/><stop stop-color="#D95D3D" offset=".31"/><stop stop-color="#C03926" offset=".99"/><stop stop-color="#C03926" offset="1"/></linearGradient><polygon points="2.7 101.6 0 158.1 14.1 132.3" fill="url(#rbb)"/><path d="m1.9 100.7l11.5 32.6 50-11.2 57-53 16.1-51.1-25.3-18-43.1 16.1c-13.6 12.7-39.9 37.7-40.9 38.1-0.9 0.5-17.4 31.6-25.3 46.5z" fill="#fff"/><linearGradient id="rba" x1="-18.6" x2="135" y1="155.1" y2="-2.8" gradientUnits="userSpaceOnUse"><stop stop-color="#BD1818" offset="0"/><stop stop-color="#fff" offset=".07"/><stop stop-color="#fff" offset=".17"/><stop stop-color="#C84D35" offset=".27"/><stop stop-color="#952F26" offset=".33"/><stop stop-color="#AC3822" offset=".46"/><stop stop-color="#B7331F" offset=".72"/><stop stop-color="#D9411D" offset=".99"/><stop stop-color="#D9411D" offset="1"/></linearGradient><path d="m42.3 42c29.4-29.2 67.4-46.4 81.9-31.7 14.6 14.7-0.9 50.4-30.3 79.6s-66.9 47.3-81.4 32.7c-14.6-14.7 0.4-51.4 29.8-80.6z" fill="url(#rba)"/><linearGradient id="rbp" x1="99.1" x2="52.8" y1="171" y2="159.6" gradientUnits="userSpaceOnUse"><stop stop-color="#9C2F25" offset="0"/><stop stop-color="#A52D23" offset=".54"/><stop stop-color="#B02C2B" offset=".99"/><stop stop-color="#B02C2B" offset="1"/></linearGradient><path d="m41 197.4l22.9-75.7 75.9 24.4c-27.5 25.7-58 47.5-98.8 51.3z" fill="url(#rbp)"/><linearGradient id="rbo" x1="178.5" x2="137.4" y1="115.5" y2="78.7" gradientUnits="userSpaceOnUse"><stop stop-color="#93352B" offset="0"/><stop stop-color="#A82D22" offset=".99"/><stop stop-color="#A82D22" offset="1"/></linearGradient><path d="m120.6 68.9l19.5 77.2c22.9-24.1 43.5-50 53.6-82.1l-73.1 4.9z" fill="url(#rbo)"/><linearGradient id="rbn" x1="193.6" x2="173.2" y1="47.9" y2="26.1" gradientUnits="userSpaceOnUse"><stop stop-color="#8F372C" offset="0"/><stop stop-color="#A93529" offset=".99"/><stop stop-color="#A93529" offset="1"/></linearGradient><path d="m193.4 64.4c7.8-23.5 9.6-57.3-27.2-63.6l-30.2 16.7 57.4 46.9z" fill="url(#rbn)"/><path d="M0 157.8c1.1 38.9 29.1 39.4 41 39.8l-27.6-64.4L0 157.8z" fill="#A93527"/><radialGradient id="rbm" cx="143.8" cy="79.4" r="50.4" gradientUnits="userSpaceOnUse"><stop stop-color="#AF2C21" offset="0"/><stop stop-color="#933229" offset=".99"/><stop stop-color="#933229" offset="1"/></radialGradient><path d="m120.7 69c17.6 10.8 53.1 32.6 53.9 33 1.1 0.6 15.3-23.9 18.5-37.8l-72.4 4.8z" fill="url(#rbm)"/><radialGradient id="rbl" cx="74.1" cy="145.8" r="66.9" gradientUnits="userSpaceOnUse"><stop stop-color="#AC2C21" offset="0"/><stop stop-color="#95332A" offset=".99"/><stop stop-color="#95332A" offset="1"/></radialGradient><path d="m63.8 121.7l30.6 59c18.1-9.8 32.2-21.7 45.2-34.5l-75.8-24.5z" fill="url(#rbl)"/><linearGradient id="rbl" x1="26.7" x2="10" y1="197.3" y2="140.7" gradientUnits="userSpaceOnUse"><stop stop-color="#9C4230" offset="0"/><stop stop-color="#A93129" offset=".43"/><stop stop-color="#B72F29" offset=".99"/><stop stop-color="#B72F29" offset="1"/></linearGradient><path d="m13.4 133.2l-4.4 51.6c8.2 11.2 19.4 12.1 31.2 11.3-8.5-21.3-25.6-63.8-26.8-62.9z" fill="url(#rbk)"/><linearGradient id="rbj" x1="154.6" x2="192" y1="9.8" y2="26.3" gradientUnits="userSpaceOnUse"><stop stop-color="#B62F1F" offset="0"/><stop stop-color="#A03228" offset=".44"/><stop stop-color="#8F3F30" offset=".99"/><stop stop-color="#8F3F30" offset="1"/></linearGradient><path d="m135.9 17.6l60.7 8.5c-3.2-13.7-13.2-22.6-30.1-25.4l-30.6 16.9z" fill="url(#rbj)"/></svg>