<svg xmlns="http://www.w3.org/2000/svg" id="svg-triforce" width="1000" height="868" viewBox="0 0 200 173.6"><defs><linearGradient id="orange-brown"><stop id="stop4668" offset="0" stop-color="rgb(255, 204, 0)"/><stop id="stop4670" offset="1" stop-color="rgb(193, 154, 0)"/></linearGradient><linearGradient id="White-Yellow"><stop id="stop3175" offset="0" stop-color="rgb(255, 255, 186)"/><stop id="stop3177" offset="1" stop-color="rgb(255, 255, 0)"/></linearGradient><linearGradient xlink:href="#orange-brown" id="linearGradient2404" gradientUnits="userSpaceOnUse" gradientTransform="matrix(-1,0,0,1,320,0)" x1="150.6" y1="150.6" x2="208.1" y2="205.4"/><radialGradient xlink:href="#White-Yellow" id="radialGradient2406" gradientUnits="userSpaceOnUse" gradientTransform="matrix(1,0,0,0.86558,0,9.23089)" cx="114.3" cy="58.7" fx="114.31902" fy="58.69239" r="43.1"/><radialGradient xlink:href="#White-Yellow" id="radialGradient2408" gradientUnits="userSpaceOnUse" gradientTransform="matrix(1,0,0,0.86558,0,20.8708)" cx="56.5" cy="172.7" fx="56.490795" fy="172.72972" r="43.1"/><radialGradient xlink:href="#White-Yellow" id="radialGradient2410" gradientUnits="userSpaceOnUse" gradientTransform="matrix(1,0,0,0.86558,0,20.8708)" cx="157.8" cy="150.9" fx="157.84048" fy="150.89961" r="43.1"/></defs><g transform="translate(-10 -23)"><use xlink:href="#use2398" transform="translate(50 -87)"/><use xlink:href="#Back-Tri" x="-100" id="use2398"/><polygon id="Back-Tri" transform="matrix(-1 0 0 1 320 0)" points="160 110 210 196.6 110 196.6 160 110 " fill="url(#linearGradient2404)"/><path id="Power" d="M66.9 106C95.6 106 124.4 106 153.1 106 138.8 81.1 124.4 56.2 110 31.3 95.6 56.2 81.3 81.1 66.9 106z" fill="url(#radialGradient2406)"/><path id="Courage" d="M16.9 192.6C45.6 192.6 74.4 192.6 103.1 192.6 88.8 167.7 74.4 142.8 60 117.9 45.6 142.8 31.3 167.7 16.9 192.6z" fill="url(#radialGradient2408)"/><path id="Wisdom" d="M116.9 192.6C145.6 192.6 174.4 192.6 203.1 192.6 188.8 167.7 174.4 142.8 160 117.9 145.6 142.8 131.3 167.7 116.9 192.6z" fill="url(#radialGradient2410)"/></g></svg>